<?xml version="1.0" encoding="UTF-8"?>
<!DOCTYPE svg PUBLIC "-//W3C//DTD SVG 1.1//EN" "http://www.w3.org/Graphics/SVG/1.1/DTD/svg11.dtd">
<svg xmlns="http://www.w3.org/2000/svg" version="1.1" width="1024px" height="1024px" style="shape-rendering:geometricPrecision; text-rendering:geometricPrecision; image-rendering:optimizeQuality; fill-rule:evenodd; clip-rule:evenodd" xmlns:xlink="http://www.w3.org/1999/xlink">
<g><path style="opacity:1" fill="#f1f2f4" d="M -0.5,-0.5 C 340.833,-0.5 682.167,-0.5 1023.5,-0.5C 1023.5,340.833 1023.5,682.167 1023.5,1023.5C 682.167,1023.5 340.833,1023.5 -0.5,1023.5C -0.5,682.167 -0.5,340.833 -0.5,-0.5 Z"/></g>
<g><path style="opacity:1" fill="#0b1011" d="M 746.5,795.5 C 587.167,795.5 427.833,795.5 268.5,795.5C 240.873,787.871 224.873,769.871 220.5,741.5C 221.309,739.708 221.809,737.708 222,735.5C 222.202,682.16 222.702,628.827 223.5,575.5C 222.227,506.17 222.227,436.837 223.5,367.5C 223.417,337.814 222.417,308.481 220.5,279.5C 223.033,249.46 239.033,230.96 268.5,224C 427.5,223.333 586.5,223.333 745.5,224C 774.51,227.91 792.343,244.076 799,272.5C 799.667,429.5 799.667,586.5 799,743.5C 793.505,773.162 776.005,790.496 746.5,795.5 Z"/></g>
<g><path style="opacity:1" fill="#eef0f2" d="M 311.5,261.5 C 315.981,260.352 320.648,260.185 325.5,261C 326.931,261.465 328.097,262.299 329,263.5C 329.333,418.833 329.667,574.167 330,729.5C 337.086,730.646 344.253,730.812 351.5,730C 352.667,729.5 353.5,728.667 354,727.5C 354.333,572.833 354.667,418.167 355,263.5C 355.692,262.975 356.192,262.308 356.5,261.5C 361.467,260.338 366.467,260.171 371.5,261C 372.931,261.465 374.097,262.299 375,263.5C 375.167,398.501 375.667,533.501 376.5,668.5C 387.418,660.811 399.418,658.478 412.5,661.5C 417.353,663.26 422.02,665.593 426.5,668.5C 427.5,534.502 427.833,400.502 427.5,266.5C 427.393,264.097 428.393,262.264 430.5,261C 436.157,260.501 441.824,260.334 447.5,260.5C 449.33,416.291 450.163,572.291 450,728.5C 450.5,729 451,729.5 451.5,730C 457.749,730.809 463.916,730.642 470,729.5C 470.333,574.167 470.667,418.833 471,263.5C 473.573,260.972 476.739,259.972 480.5,260.5C 482.833,260.667 485.167,260.833 487.5,261C 488.667,261.5 489.5,262.333 490,263.5C 490.167,419.001 490.667,574.334 491.5,729.5C 497.319,730.653 503.319,730.819 509.5,730C 510,729.5 510.5,729 511,728.5C 511.333,573.5 511.667,418.5 512,263.5C 512.5,262.333 513.333,261.5 514.5,261C 519.167,260.333 523.833,260.333 528.5,261C 530.324,261.66 531.657,262.827 532.5,264.5C 532.5,399.5 532.5,534.5 532.5,669.5C 533.791,669.737 534.791,669.404 535.5,668.5C 544.924,661.312 555.591,658.812 567.5,661C 571.894,662.409 576.228,663.909 580.5,665.5C 580.5,666.167 580.833,666.5 581.5,666.5C 581.821,668.048 582.821,668.715 584.5,668.5C 584.17,533.126 584.503,397.793 585.5,262.5C 585.611,261.883 585.944,261.383 586.5,261C 590.167,260.333 593.833,260.333 597.5,261C 599.324,261.66 600.657,262.827 601.5,264.5C 601.167,398.835 601.5,533.168 602.5,667.5C 603.107,667.376 603.44,667.043 603.5,666.5C 619.491,658.12 635.158,658.787 650.5,668.5C 651.333,533.835 651.833,399.168 652,264.5C 652.833,263 654,261.833 655.5,261C 659.821,260.501 664.154,260.334 668.5,260.5C 670.408,260.883 671.908,261.883 673,263.5C 673.333,418.167 673.667,572.833 674,727.5C 674.374,728.416 674.874,729.25 675.5,730C 682.747,730.812 689.914,730.646 697,729.5C 697.333,574.167 697.667,418.833 698,263.5C 699.174,261.329 701.007,260.329 703.5,260.5C 707.182,260.335 710.848,260.501 714.5,261C 715.333,261.833 716.167,262.667 717,263.5C 717.167,419.07 717.667,574.57 718.5,730C 724.167,730.667 729.833,730.667 735.5,730C 736.416,729.626 737.25,729.126 738,728.5C 738.333,573.167 738.667,417.833 739,262.5C 739.956,261.106 741.289,260.439 743,260.5C 752.69,262.498 759.023,268.164 762,277.5C 762.667,431.5 762.667,585.5 762,739.5C 759.423,749.075 753.257,754.909 743.5,757C 587.5,757.667 431.5,757.667 275.5,757C 265.245,754.913 259.245,748.746 257.5,738.5C 257.015,700.124 258.015,661.791 260.5,623.5C 260.056,599.506 260.056,575.506 260.5,551.5C 261.5,551.5 262.5,551.5 263.5,551.5C 263.5,546.167 263.5,540.833 263.5,535.5C 262.5,535.5 261.5,535.5 260.5,535.5C 259.497,512.823 259.497,490.156 260.5,467.5C 258.492,454.198 258.492,440.864 260.5,427.5C 259.167,403.5 259.167,379.5 260.5,355.5C 259.507,351.558 258.84,347.558 258.5,343.5C 260.065,325.867 261.065,308.2 261.5,290.5C 261.833,288.833 262.167,287.167 262.5,285.5C 263.192,286.025 263.692,286.692 264,287.5C 264.711,285.633 264.211,284.133 262.5,283C 263.487,279.192 265.154,275.692 267.5,272.5C 265.257,271.526 262.924,271.192 260.5,271.5C 264.31,264.381 270.31,261.048 278.5,261.5C 279.33,417.127 279.83,572.793 280,728.5C 280.5,729 281,729.5 281.5,730C 290.5,730.667 299.5,730.667 308.5,730C 309.456,726.606 309.789,723.106 309.5,719.5C 311.369,717.365 312.036,714.698 311.5,711.5C 312.5,711.5 313.5,711.5 314.5,711.5C 315.222,674.173 315.722,636.84 316,599.5C 317,598.167 318,598.167 319,599.5C 319.667,597.833 319.667,596.167 319,594.5C 318.107,595.711 317.274,595.711 316.5,594.5C 317.325,593.614 318.325,593.281 319.5,593.5C 319.891,588.989 319.225,584.655 317.5,580.5C 319.133,578.613 318.8,577.113 316.5,576C 317.778,561.226 317.778,546.392 316.5,531.5C 317.094,519.272 317.761,507.105 318.5,495C 317.289,494.213 316.289,493.546 315.5,493C 315.903,491.527 316.57,490.194 317.5,489C 316.833,488.667 316.167,488.333 315.5,488C 316.82,478.729 317.486,469.229 317.5,459.5C 316.5,432.823 316.5,406.156 317.5,379.5C 315.568,373.033 315.068,366.366 316,359.5C 316.828,370.136 317.328,370.136 317.5,359.5C 314.944,342.16 314.944,324.827 317.5,307.5C 315.84,298.235 314.84,288.901 314.5,279.5C 315.552,279.649 316.552,279.483 317.5,279C 316.328,278.581 315.328,277.915 314.5,277C 316.167,276.667 317.833,276.333 319.5,276C 317.77,272.148 316.937,267.982 317,263.5C 315.887,262.289 314.72,262.289 313.5,263.5C 312.818,262.757 312.151,262.091 311.5,261.5 Z"/></g>
<g><path style="opacity:1" fill="#090e11" d="M 278.5,261.5 C 281.572,261.183 284.572,261.516 287.5,262.5C 286.593,265.421 286.26,268.421 286.5,271.5C 287.5,271.5 288.5,271.5 289.5,271.5C 290.704,282.464 291.537,293.464 292,304.5C 293.406,303.332 294.572,303.665 295.5,305.5C 296.216,304.689 297.05,304.022 298,303.5C 299.15,304.424 300.15,304.424 301,303.5C 301.499,297.509 301.666,291.509 301.5,285.5C 299.5,285.5 297.5,285.5 295.5,285.5C 296.394,282.454 296.561,279.454 296,276.5C 297.333,277.833 298.667,279.167 300,280.5C 300.414,280.043 300.914,279.709 301.5,279.5C 302.395,281.246 303.062,283.08 303.5,285C 303.25,288.332 303.25,291.832 303.5,295.5C 304.833,295.5 306.167,295.5 307.5,295.5C 307.991,286.393 307.324,277.393 305.5,268.5C 305.967,265.852 307.134,263.519 309,261.5C 309.464,262.094 309.631,262.761 309.5,263.5C 309.5,415.5 309.5,567.5 309.5,719.5C 309.789,723.106 309.456,726.606 308.5,730C 299.5,730.667 290.5,730.667 281.5,730C 281,729.5 280.5,729 280,728.5C 279.83,572.793 279.33,417.127 278.5,261.5 Z"/></g>
<g><path style="opacity:1" fill="#f0f2f1" d="M 659.5,271.5 C 661.08,273.717 662.08,276.384 662.5,279.5C 663.48,276.914 663.813,274.247 663.5,271.5C 666.167,271.5 668.833,271.5 671.5,271.5C 671.216,420.538 671.55,569.538 672.5,718.5C 672.449,721.223 672.116,723.89 671.5,726.5C 667.217,727.492 662.884,727.826 658.5,727.5C 659.333,714.185 659.666,700.851 659.5,687.5C 658.167,687.5 656.833,687.5 655.5,687.5C 655.42,554.193 655.42,420.86 655.5,287.5C 656.5,287.5 657.5,287.5 658.5,287.5C 658.833,282.167 659.167,276.833 659.5,271.5 Z"/></g>
<g><path style="opacity:1" fill="#121417" d="M 491.5,729.5 C 490.667,574.334 490.167,419.001 490,263.5C 489.5,262.333 488.667,261.5 487.5,261C 485.167,260.833 482.833,260.667 480.5,260.5C 476.739,259.972 473.573,260.972 471,263.5C 470.667,418.833 470.333,574.167 470,729.5C 463.916,730.642 457.749,730.809 451.5,730C 451,729.5 450.5,729 450,728.5C 450.163,572.291 449.33,416.291 447.5,260.5C 450.097,260.279 450.097,259.779 447.5,259C 449.727,258.879 451.56,258.046 453,256.5C 453.667,260.5 454.333,260.5 455,256.5C 455.725,255.941 456.558,255.608 457.5,255.5C 458.516,257.014 460.516,258.014 463.5,258.5C 464.473,260.64 465.973,262.307 468,263.5C 467.981,261.893 467.815,260.226 467.5,258.5C 470.874,257.486 474.207,257.819 477.5,259.5C 479.764,258.771 481.097,257.604 481.5,256C 483.5,255.333 485.5,255.333 487.5,256C 485.833,256.333 484.167,256.667 482.5,257C 485.482,257.567 488.315,257.067 491,255.5C 492.226,255.645 493.393,255.978 494.5,256.5C 495.923,266.851 496.589,277.184 496.5,287.5C 497.318,284.893 497.818,282.226 498,279.5C 498.218,282.426 498.718,285.26 499.5,288C 499.167,288.333 498.833,288.667 498.5,289C 499.742,289.311 500.742,288.811 501.5,287.5C 503.987,287.782 506.653,287.782 509.5,287.5C 509.5,380.833 509.5,474.166 509.5,567.5C 509.333,594.167 509.167,620.833 509,647.5C 508.171,658.146 507.671,658.146 507.5,647.5C 506.5,647.5 505.5,647.5 504.5,647.5C 504.664,650.187 504.497,652.854 504,655.5C 503.25,654.874 502.416,654.374 501.5,654C 502.308,653.692 502.975,653.192 503.5,652.5C 500.914,651.52 498.247,651.187 495.5,651.5C 495.854,649.459 495.854,647.626 495.5,646C 500.115,644.686 501.115,645.686 498.5,649C 500.134,649.494 501.801,649.66 503.5,649.5C 503.64,647.876 502.973,646.71 501.5,646C 502.308,645.692 502.975,645.192 503.5,644.5C 500.833,643.833 498.167,643.167 495.5,642.5C 495.654,638.348 495.654,634.015 495.5,629.5C 497.199,629.34 498.866,629.506 500.5,630C 499.833,633.667 499.167,637.333 498.5,641C 500.259,641.798 501.926,641.631 503.5,640.5C 502.689,639.784 502.022,638.95 501.5,638C 502.99,634.778 503.657,631.611 503.5,628.5C 492.833,627.167 492.833,625.833 503.5,624.5C 502.689,623.784 502.022,622.95 501.5,622C 502.167,620 502.833,618 503.5,616C 503.095,615.055 502.428,614.388 501.5,614C 502.308,613.692 502.975,613.192 503.5,612.5C 500.833,611.833 498.167,611.167 495.5,610.5C 495.539,603.636 495.539,596.802 495.5,590C 500.115,588.686 501.115,589.686 498.5,593C 500.134,593.494 501.801,593.66 503.5,593.5C 503.64,591.876 502.973,590.71 501.5,590C 502.308,589.692 502.975,589.192 503.5,588.5C 500.833,587.833 498.167,587.167 495.5,586.5C 495.709,585.914 496.043,585.414 496.5,585C 495.712,581.924 495.212,578.758 495,575.5C 494.333,540.833 494.333,506.167 495,471.5C 496.463,454.008 496.297,436.674 494.5,419.5C 494.223,386.177 494.556,352.844 495.5,319.5C 494.5,319.5 493.5,319.5 492.5,319.5C 491.474,418.781 491.141,555.448 491.5,729.5 Z"/></g>
<g><path style="opacity:1" fill="#ebecf3" d="M 260.5,271.5 C 262.924,271.192 265.257,271.526 267.5,272.5C 265.154,275.692 263.487,279.192 262.5,283C 264.211,284.133 264.711,285.633 264,287.5C 263.692,286.692 263.192,286.025 262.5,285.5C 262.167,287.167 261.833,288.833 261.5,290.5C 261.065,308.2 260.065,325.867 258.5,343.5C 258.84,347.558 259.507,351.558 260.5,355.5C 259.167,379.5 259.167,403.5 260.5,427.5C 258.492,440.864 258.492,454.198 260.5,467.5C 259.497,490.156 259.497,512.823 260.5,535.5C 261.5,535.5 262.5,535.5 263.5,535.5C 263.5,540.833 263.5,546.167 263.5,551.5C 262.5,551.5 261.5,551.5 260.5,551.5C 260.056,575.506 260.056,599.506 260.5,623.5C 258.015,661.791 257.015,700.124 257.5,738.5C 256.334,585.667 256.167,432.667 257,279.5C 257.387,276.401 258.554,273.734 260.5,271.5 Z"/></g>
<g><path style="opacity:1" fill="#8d8e91" d="M 601.5,264.5 C 602.167,398.5 602.833,532.5 603.5,666.5C 603.44,667.043 603.107,667.376 602.5,667.5C 601.5,533.168 601.167,398.835 601.5,264.5 Z"/></g>
<g><path style="opacity:1" fill="#f2f3fa" d="M 311.5,261.5 C 312.151,262.091 312.818,262.757 313.5,263.5C 314.72,262.289 315.887,262.289 317,263.5C 316.937,267.982 317.77,272.148 319.5,276C 317.833,276.333 316.167,276.667 314.5,277C 315.328,277.915 316.328,278.581 317.5,279C 316.552,279.483 315.552,279.649 314.5,279.5C 314.84,288.901 315.84,298.235 317.5,307.5C 314.944,324.827 314.944,342.16 317.5,359.5C 317.328,370.136 316.828,370.136 316,359.5C 315.068,366.366 315.568,373.033 317.5,379.5C 316.5,406.156 316.5,432.823 317.5,459.5C 317.486,469.229 316.82,478.729 315.5,488C 316.167,488.333 316.833,488.667 317.5,489C 316.57,490.194 315.903,491.527 315.5,493C 316.289,493.546 317.289,494.213 318.5,495C 317.761,507.105 317.094,519.272 316.5,531.5C 317.778,546.392 317.778,561.226 316.5,576C 318.8,577.113 319.133,578.613 317.5,580.5C 319.225,584.655 319.891,588.989 319.5,593.5C 318.325,593.281 317.325,593.614 316.5,594.5C 317.274,595.711 318.107,595.711 319,594.5C 319.667,596.167 319.667,597.833 319,599.5C 318,598.167 317,598.167 316,599.5C 315.722,636.84 315.222,674.173 314.5,711.5C 313.5,711.5 312.5,711.5 311.5,711.5C 312.036,714.698 311.369,717.365 309.5,719.5C 309.5,567.5 309.5,415.5 309.5,263.5C 310.167,262.833 310.833,262.167 311.5,261.5 Z"/></g>
<g><path style="opacity:1" fill="#040607" d="M 220.5,279.5 C 222.417,308.481 223.417,337.814 223.5,367.5C 222.227,436.837 222.227,506.17 223.5,575.5C 222.702,628.827 222.202,682.16 222,735.5C 221.809,737.708 221.309,739.708 220.5,741.5C 220.5,587.5 220.5,433.5 220.5,279.5 Z"/></g>
<g><path style="opacity:1" fill="#999c9f" d="M 532.5,264.5 C 532.834,399.336 533.834,534.003 535.5,668.5C 534.791,669.404 533.791,669.737 532.5,669.5C 532.5,534.5 532.5,399.5 532.5,264.5 Z"/></g>
<g><path style="opacity:1" fill="#191d1e" d="M 583.5,266.5 C 583.667,400.167 583.5,533.834 583,667.5C 582.617,666.944 582.117,666.611 581.5,666.5C 580.833,666.5 580.5,666.167 580.5,665.5C 581.117,665.389 581.617,665.056 582,664.5C 582.167,531.666 582.667,398.999 583.5,266.5 Z"/></g>
<g><path style="opacity:1" fill="#dee2e3" d="M 585.5,262.5 C 584.503,397.793 584.17,533.126 584.5,668.5C 582.821,668.715 581.821,668.048 581.5,666.5C 582.117,666.611 582.617,666.944 583,667.5C 583.5,533.834 583.667,400.167 583.5,266.5C 583.229,264.62 583.896,263.287 585.5,262.5 Z"/></g>
<g><path style="opacity:1" fill="#0a0d12" d="M 427.5,266.5 C 427.833,400.502 427.5,534.502 426.5,668.5C 422.02,665.593 417.353,663.26 412.5,661.5C 414.076,660.717 415.409,659.55 416.5,658C 414.477,654.817 413.977,651.317 415,647.5C 415.497,650.146 415.664,652.813 415.5,655.5C 417.167,655.5 418.833,655.5 420.5,655.5C 422.012,644.097 423.012,632.597 423.5,621C 423.166,618.825 422.166,616.992 420.5,615.5C 419.579,617.756 417.912,618.756 415.5,618.5C 415.5,580.167 415.5,541.833 415.5,503.5C 416.833,503.5 418.167,503.5 419.5,503.5C 419.5,506.167 419.5,508.833 419.5,511.5C 420.833,511.5 422.167,511.5 423.5,511.5C 425.159,495.554 426.159,479.554 426.5,463.5C 425.334,434.162 425.167,404.828 426,375.5C 425.818,378.226 425.318,380.893 424.5,383.5C 423.505,378.208 423.172,372.875 423.5,367.5C 422.167,367.5 420.833,367.5 419.5,367.5C 419.5,370.167 419.5,372.833 419.5,375.5C 418.167,375.5 416.833,375.5 415.5,375.5C 415.5,369.833 415.5,364.167 415.5,358.5C 418.045,357.573 420.378,357.573 422.5,358.5C 422.889,353.652 423.222,348.652 423.5,343.5C 424.5,343.5 425.5,343.5 426.5,343.5C 426.992,324.828 426.325,306.161 424.5,287.5C 425.373,280.333 426.373,273.333 427.5,266.5 Z"/></g>
<g><path style="opacity:1" fill="#101416" d="M 703.5,260.5 C 701.007,260.329 699.174,261.329 698,263.5C 697.667,418.833 697.333,574.167 697,729.5C 689.914,730.646 682.747,730.812 675.5,730C 674.874,729.25 674.374,728.416 674,727.5C 673.667,572.833 673.333,418.167 673,263.5C 671.908,261.883 670.408,260.883 668.5,260.5C 668.351,259.448 668.517,258.448 669,257.5C 670.441,258.26 671.941,258.926 673.5,259.5C 673.5,258.5 673.5,257.5 673.5,256.5C 674.799,257.09 675.632,258.09 676,259.5C 676.085,257.915 676.251,256.582 676.5,255.5C 678.987,255.782 681.653,255.782 684.5,255.5C 684.5,258.167 684.5,260.833 684.5,263.5C 685.5,263.5 686.5,263.5 687.5,263.5C 687.5,266.167 687.5,268.833 687.5,271.5C 689.833,271.5 692.167,271.5 694.5,271.5C 694.334,267.486 694.501,263.486 695,259.5C 696.205,258.929 697.372,258.262 698.5,257.5C 698.291,256.914 697.957,256.414 697.5,256C 699.5,255.333 701.5,255.333 703.5,256C 703.167,256.333 702.833,256.667 702.5,257C 703.5,257.333 704.5,257.667 705.5,258C 704.244,258.417 703.577,259.25 703.5,260.5 Z"/></g>
<g><path style="opacity:1" fill="#0d1012" d="M 556.5,686.5 C 570.205,684.932 579.372,690.598 584,703.5C 585.571,716.925 580.071,726.092 567.5,731C 552.656,733.816 543.156,727.983 539,713.5C 537.519,699.524 543.352,690.524 556.5,686.5 Z"/></g>
<g><path style="opacity:1" fill="#0d1011" d="M 619.5,686.5 C 638.676,684.853 648.509,693.52 649,712.5C 644.6,727.125 634.766,733.292 619.5,731C 603.408,722.821 599.575,710.654 608,694.5C 611.482,691.161 615.315,688.494 619.5,686.5 Z"/></g>
<g><path style="opacity:1" fill="#0d1012" d="M 396.5,686.5 C 410.205,684.932 419.372,690.598 424,703.5C 425.583,716.917 420.083,726.084 407.5,731C 392.915,733.457 383.415,727.624 379,713.5C 377.419,699.599 383.252,690.599 396.5,686.5 Z"/></g>
<g><path style="opacity:1" fill="#fafefe" d="M 268.5,795.5 C 427.833,795.5 587.167,795.5 746.5,795.5C 591.196,796.17 435.196,796.836 278.5,797.5C 274.443,796.964 271.109,796.297 268.5,795.5 Z"/></g>
</svg>
